<svg xmlns="http://www.w3.org/2000/svg" viewBox="0 0 1258 916" width="1258" height="916" role="img" aria-label="PadelOS mockup mock-payments.svg">
    
    <defs>
      <filter id="shadow" x="-20%" y="-20%" width="140%" height="150%">
        <feDropShadow dx="0" dy="18" stdDeviation="22" flood-color="#8A2D16" flood-opacity="0.12"/>
      </filter>
      <linearGradient id="creamGrad" x1="0" y1="0" x2="1" y2="1">
        <stop offset="0" stop-color="#FFF8F1"/>
        <stop offset="1" stop-color="#FFFFFF"/>
      </linearGradient>
      <linearGradient id="coralGrad" x1="0" y1="0" x2="1" y2="1">
        <stop offset="0" stop-color="#FF724D"/>
        <stop offset="1" stop-color="#F04F2A"/>
      </linearGradient>
    </defs>
    
    <style>
  .bg { fill: #FFF8F1; }
  .screen { fill: #ffffff; stroke: #EADDD2; stroke-width: 1.5; }
  .surface { fill: #ffffff; stroke: #EADDD2; stroke-width: 1.2; }
  .surface2 { fill: #FFFDFB; stroke: #EADDD2; stroke-width: 1; }
  .ink { fill: #211A1D; font-family: Inter, ui-sans-serif, system-ui, -apple-system, BlinkMacSystemFont, Segoe UI, sans-serif; font-weight: 750; }
  .text { fill: #211A1D; font-family: Inter, ui-sans-serif, system-ui, -apple-system, BlinkMacSystemFont, Segoe UI, sans-serif; font-weight: 600; }
  .muted { fill: #82746D; font-family: Inter, ui-sans-serif, system-ui, -apple-system, BlinkMacSystemFont, Segoe UI, sans-serif; font-weight: 500; }
  .tiny { font-size: 17px; }
  .small { font-size: 22px; }
  .body { font-size: 28px; }
  .h2 { font-size: 42px; letter-spacing: -1.5px; }
  .h1 { font-size: 58px; letter-spacing: -2.4px; }
  .pill { fill: #FFF1E9; stroke: #FFD8C9; stroke-width: 1; }
  .accent { fill: #F04F2A; }
  .accentDark { fill: #BF321C; }
  .amber { fill: #FFB703; }
  .green { fill: #16A34A; }
  .blue { fill: #4F77FF; }
  .line { stroke: #EADDD2; stroke-width: 1.5; }
  .soft { fill: #FFF3EA; }
  .shadow { filter: url(#shadow); }
</style>
    <rect width="1258" height="916" fill="url(#creamGrad)"/>
    <g transform="translate(50,48)"><g class="shadow"><rect x="0" y="0" width="1158" height="820" rx="30" class="screen"/><rect x="0" y="0" width="1158" height="74" rx="28" fill="#FFFDFB"/><circle cx="34" cy="35" r="8" fill="#F87171"/><circle cx="61" cy="35" r="8" fill="#FBBF24"/><circle cx="88" cy="35" r="8" fill="#22C55E"/><text x="126" y="43" class="muted tiny">Payments</text><line x1="0" y1="74" x2="1158" y2="74" class="line"/><g transform="translate(0,74)"><text x="54" y="72" class="ink h2">Payments &amp; operations</text><text x="54" y="112" class="muted small">One view for bookings, deposits, refunds and coach payouts.</text><rect x="54" y="160" width="330" height="170" rx="28" class="surface"/><text x="84" y="212" class="muted tiny">Today revenue</text><text x="84" y="278" class="ink h1">€1,840</text><rect x="414" y="160" width="330" height="170" rx="28" class="surface"/><text x="444" y="212" class="muted tiny">Collected online</text><text x="444" y="278" class="ink h1">78%</text><rect x="774" y="160" width="330" height="170" rx="28" class="surface"/><text x="804" y="212" class="muted tiny">Pending</text><text x="804" y="278" class="ink h1">€192</text><rect x="54" y="374" width="1050" height="370" rx="28" class="surface"/><text x="86" y="430" class="ink body">Recent transactions</text><text x="86" y="482" class="muted tiny">18:02</text><text x="184" y="482" class="text tiny">Court 03 · private booking</text><text x="596" y="482" class="muted tiny">Apple Pay</text><text x="824" y="482" class="text tiny">€48</text><rect x="930" y="454" width="112" height="36" rx="18.0" class="pill"/><text x="986.0" y="478.0" class="muted tiny" text-anchor="middle">Paid</text><line x1="86" y1="504" x2="1042" y2="504" class="line"/><text x="86" y="544" class="muted tiny">17:48</text><text x="184" y="544" class="text tiny">Open match · 4 players</text><text x="596" y="544" class="muted tiny">Split payment</text><text x="824" y="544" class="text tiny">€56</text><rect x="930" y="516" width="112" height="36" rx="18.0" class="pill"/><text x="986.0" y="540.0" class="muted tiny" text-anchor="middle">Paid</text><line x1="86" y1="566" x2="1042" y2="566" class="line"/><text x="86" y="606" class="muted tiny">17:20</text><text x="184" y="606" class="text tiny">Coach session · Marco</text><text x="596" y="606" class="muted tiny">Card</text><text x="824" y="606" class="text tiny">€72</text><rect x="930" y="578" width="112" height="36" rx="18.0" class="pill"/><text x="986.0" y="602.0" class="muted tiny" text-anchor="middle">Pending</text><line x1="86" y1="628" x2="1042" y2="628" class="line"/><text x="86" y="668" class="muted tiny">16:55</text><text x="184" y="668" class="text tiny">Cancellation fee</text><text x="596" y="668" class="muted tiny">Stripe</text><text x="824" y="668" class="text tiny">€12</text><rect x="930" y="640" width="112" height="36" rx="18.0" class="pill"/><text x="986.0" y="664.0" class="muted tiny" text-anchor="middle">Refunded</text><line x1="86" y1="690" x2="1042" y2="690" class="line"/></g></g></g>
    </svg>