<svg xmlns="http://www.w3.org/2000/svg" viewBox="0 0 1050 700" width="1050" height="700" role="img" aria-label="PadelOS mockup mock-mobile-app.svg">
    
    <defs>
      <filter id="shadow" x="-20%" y="-20%" width="140%" height="150%">
        <feDropShadow dx="0" dy="18" stdDeviation="22" flood-color="#8A2D16" flood-opacity="0.12"/>
      </filter>
      <linearGradient id="creamGrad" x1="0" y1="0" x2="1" y2="1">
        <stop offset="0" stop-color="#FFF8F1"/>
        <stop offset="1" stop-color="#FFFFFF"/>
      </linearGradient>
      <linearGradient id="coralGrad" x1="0" y1="0" x2="1" y2="1">
        <stop offset="0" stop-color="#FF724D"/>
        <stop offset="1" stop-color="#F04F2A"/>
      </linearGradient>
    </defs>
    
    <style>
  .bg { fill: #FFF8F1; }
  .screen { fill: #ffffff; stroke: #EADDD2; stroke-width: 1.5; }
  .surface { fill: #ffffff; stroke: #EADDD2; stroke-width: 1.2; }
  .surface2 { fill: #FFFDFB; stroke: #EADDD2; stroke-width: 1; }
  .ink { fill: #211A1D; font-family: Inter, ui-sans-serif, system-ui, -apple-system, BlinkMacSystemFont, Segoe UI, sans-serif; font-weight: 750; }
  .text { fill: #211A1D; font-family: Inter, ui-sans-serif, system-ui, -apple-system, BlinkMacSystemFont, Segoe UI, sans-serif; font-weight: 600; }
  .muted { fill: #82746D; font-family: Inter, ui-sans-serif, system-ui, -apple-system, BlinkMacSystemFont, Segoe UI, sans-serif; font-weight: 500; }
  .tiny { font-size: 17px; }
  .small { font-size: 22px; }
  .body { font-size: 28px; }
  .h2 { font-size: 42px; letter-spacing: -1.5px; }
  .h1 { font-size: 58px; letter-spacing: -2.4px; }
  .pill { fill: #FFF1E9; stroke: #FFD8C9; stroke-width: 1; }
  .accent { fill: #F04F2A; }
  .accentDark { fill: #BF321C; }
  .amber { fill: #FFB703; }
  .green { fill: #16A34A; }
  .blue { fill: #4F77FF; }
  .line { stroke: #EADDD2; stroke-width: 1.5; }
  .soft { fill: #FFF3EA; }
  .shadow { filter: url(#shadow); }
</style>
    <rect width="1050" height="700" fill="url(#creamGrad)"/>
    <g class="shadow" transform="translate(48,42)"><rect x="0" y="0" width="286" height="610" rx="48" fill="#171214"/><rect x="14" y="14" width="258" height="582" rx="38" fill="#FFFDFB"/><rect x="103" y="25" width="80" height="8" rx="4" fill="#2A2224"/><text x="34" y="78" font-family="Inter,sans-serif" font-size="29" font-weight="900" fill="#211A1D">Today</text><rect x="34" y="104" width="218" height="108" rx="25" fill="#FFF1E9"/><text x="58" y="150" font-family="Inter,sans-serif" font-size="16" font-weight="700" fill="#82746D">Active courts</text><text x="58" y="192" font-family="Inter,sans-serif" font-size="42" font-weight="950" fill="#211A1D">4/6</text><rect x="34" y="242" width="218" height="58" rx="19" fill="#fff" stroke="#EADDD2"/><circle cx="58" cy="271" r="7" fill="#16A34A"/><text x="76" y="267" font-family="Inter,sans-serif" font-size="16" font-weight="850" fill="#211A1D">Court 01</text><text x="76" y="287" font-family="Inter,sans-serif" font-size="12" font-weight="600" fill="#82746D">36m left</text><rect x="34" y="320" width="218" height="58" rx="19" fill="#fff" stroke="#EADDD2"/><circle cx="58" cy="349" r="7" fill="#F04F2A"/><text x="76" y="345" font-family="Inter,sans-serif" font-size="16" font-weight="850" fill="#211A1D">Court 02</text><text x="76" y="365" font-family="Inter,sans-serif" font-size="12" font-weight="600" fill="#82746D">2 seats</text><rect x="34" y="398" width="218" height="58" rx="19" fill="#fff" stroke="#EADDD2"/><circle cx="58" cy="427" r="7" fill="#FFB703"/><text x="76" y="423" font-family="Inter,sans-serif" font-size="16" font-weight="850" fill="#211A1D">Court 03</text><text x="76" y="443" font-family="Inter,sans-serif" font-size="12" font-weight="600" fill="#82746D">cleaning</text></g><g class="shadow" transform="translate(370,42)"><rect x="0" y="0" width="286" height="610" rx="48" fill="#171214"/><rect x="14" y="14" width="258" height="582" rx="38" fill="#FFFDFB"/><rect x="103" y="25" width="80" height="8" rx="4" fill="#2A2224"/><text x="34" y="78" font-family="Inter,sans-serif" font-size="29" font-weight="900" fill="#211A1D">Book</text><rect x="34" y="104" width="218" height="80" rx="24" fill="#FFF1E9"/><text x="58" y="142" font-family="Inter,sans-serif" font-size="18" font-weight="850" fill="#211A1D">Court 03</text><text x="58" y="166" font-family="Inter,sans-serif" font-size="13" font-weight="600" fill="#82746D">Today · 19:00</text><rect x="34" y="220" width="98" height="48" rx="16" fill="#fff" stroke="#EADDD2"/><text x="83" y="250" text-anchor="middle" font-family="Inter,sans-serif" font-size="16" font-weight="850" fill="#211A1D">18:00</text><rect x="146" y="220" width="98" height="48" rx="16" fill="#fff" stroke="#EADDD2"/><text x="195" y="250" text-anchor="middle" font-family="Inter,sans-serif" font-size="16" font-weight="850" fill="#211A1D">18:30</text><rect x="34" y="286" width="98" height="48" rx="16" fill="#F04F2A" stroke="#F04F2A"/><text x="83" y="316" text-anchor="middle" font-family="Inter,sans-serif" font-size="16" font-weight="850" fill="#fff">19:00</text><rect x="146" y="286" width="98" height="48" rx="16" fill="#fff" stroke="#EADDD2"/><text x="195" y="316" text-anchor="middle" font-family="Inter,sans-serif" font-size="16" font-weight="850" fill="#211A1D">19:30</text><rect x="34" y="352" width="98" height="48" rx="16" fill="#fff" stroke="#EADDD2"/><text x="83" y="382" text-anchor="middle" font-family="Inter,sans-serif" font-size="16" font-weight="850" fill="#211A1D">20:00</text><rect x="146" y="352" width="98" height="48" rx="16" fill="#fff" stroke="#EADDD2"/><text x="195" y="382" text-anchor="middle" font-family="Inter,sans-serif" font-size="16" font-weight="850" fill="#211A1D">20:30</text><rect x="34" y="486" width="218" height="54" rx="27" fill="#F04F2A"/><text x="143" y="520" text-anchor="middle" font-family="Inter,sans-serif" font-size="17" font-weight="900" fill="#fff">Book now</text></g><g class="shadow" transform="translate(692,42)"><rect x="0" y="0" width="286" height="610" rx="48" fill="#171214"/><rect x="14" y="14" width="258" height="582" rx="38" fill="#FFFDFB"/><rect x="103" y="25" width="80" height="8" rx="4" fill="#2A2224"/><text x="34" y="78" font-family="Inter,sans-serif" font-size="29" font-weight="900" fill="#211A1D">Profile</text><circle cx="143" cy="150" r="50" fill="#FFF1E9"/><text x="143" y="166" text-anchor="middle" font-family="Inter,sans-serif" font-size="46" font-weight="950" fill="#F04F2A">A</text><text x="143" y="232" text-anchor="middle" font-family="Inter,sans-serif" font-size="25" font-weight="900" fill="#211A1D">Aylin</text><text x="143" y="258" text-anchor="middle" font-family="Inter,sans-serif" font-size="14" font-weight="650" fill="#82746D">Level 3.8 · Rank #2</text><rect x="34" y="304" width="218" height="54" rx="18" fill="#fff" stroke="#EADDD2"/><text x="58" y="338" font-family="Inter,sans-serif" font-size="15" font-weight="700" fill="#82746D">Matches</text><text x="224" y="338" text-anchor="end" font-family="Inter,sans-serif" font-size="19" font-weight="900" fill="#211A1D">42</text><rect x="34" y="374" width="218" height="54" rx="18" fill="#fff" stroke="#EADDD2"/><text x="58" y="408" font-family="Inter,sans-serif" font-size="15" font-weight="700" fill="#82746D">Win rate</text><text x="224" y="408" text-anchor="end" font-family="Inter,sans-serif" font-size="19" font-weight="900" fill="#211A1D">64%</text><rect x="34" y="444" width="218" height="54" rx="18" fill="#fff" stroke="#EADDD2"/><text x="58" y="478" font-family="Inter,sans-serif" font-size="15" font-weight="700" fill="#82746D">Points</text><text x="224" y="478" text-anchor="end" font-family="Inter,sans-serif" font-size="19" font-weight="900" fill="#211A1D">2,180</text></g>
    </svg>