<svg xmlns="http://www.w3.org/2000/svg" viewBox="0 0 1492 1012" width="1492" height="1012" role="img" aria-label="PadelOS mockup mock-command-center.svg">
    
    <defs>
      <filter id="shadow" x="-20%" y="-20%" width="140%" height="150%">
        <feDropShadow dx="0" dy="18" stdDeviation="22" flood-color="#8A2D16" flood-opacity="0.12"/>
      </filter>
      <linearGradient id="creamGrad" x1="0" y1="0" x2="1" y2="1">
        <stop offset="0" stop-color="#FFF8F1"/>
        <stop offset="1" stop-color="#FFFFFF"/>
      </linearGradient>
      <linearGradient id="coralGrad" x1="0" y1="0" x2="1" y2="1">
        <stop offset="0" stop-color="#FF724D"/>
        <stop offset="1" stop-color="#F04F2A"/>
      </linearGradient>
    </defs>
    
    <style>
  .bg { fill: #FFF8F1; }
  .screen { fill: #ffffff; stroke: #EADDD2; stroke-width: 1.5; }
  .surface { fill: #ffffff; stroke: #EADDD2; stroke-width: 1.2; }
  .surface2 { fill: #FFFDFB; stroke: #EADDD2; stroke-width: 1; }
  .ink { fill: #211A1D; font-family: Inter, ui-sans-serif, system-ui, -apple-system, BlinkMacSystemFont, Segoe UI, sans-serif; font-weight: 750; }
  .text { fill: #211A1D; font-family: Inter, ui-sans-serif, system-ui, -apple-system, BlinkMacSystemFont, Segoe UI, sans-serif; font-weight: 600; }
  .muted { fill: #82746D; font-family: Inter, ui-sans-serif, system-ui, -apple-system, BlinkMacSystemFont, Segoe UI, sans-serif; font-weight: 500; }
  .tiny { font-size: 17px; }
  .small { font-size: 22px; }
  .body { font-size: 28px; }
  .h2 { font-size: 42px; letter-spacing: -1.5px; }
  .h1 { font-size: 58px; letter-spacing: -2.4px; }
  .pill { fill: #FFF1E9; stroke: #FFD8C9; stroke-width: 1; }
  .accent { fill: #F04F2A; }
  .accentDark { fill: #BF321C; }
  .amber { fill: #FFB703; }
  .green { fill: #16A34A; }
  .blue { fill: #4F77FF; }
  .line { stroke: #EADDD2; stroke-width: 1.5; }
  .soft { fill: #FFF3EA; }
  .shadow { filter: url(#shadow); }
</style>
    <rect width="1492" height="1012" fill="url(#creamGrad)"/>
    <g transform="translate(42,56)"><g class="shadow"><rect x="0" y="0" width="1408" height="900" rx="30" class="screen"/><rect x="0" y="0" width="1408" height="74" rx="28" fill="#FFFDFB"/><circle cx="34" cy="35" r="8" fill="#F87171"/><circle cx="61" cy="35" r="8" fill="#FBBF24"/><circle cx="88" cy="35" r="8" fill="#22C55E"/><text x="126" y="43" class="muted tiny">PadelOS / Admin</text><line x1="0" y1="74" x2="1408" y2="74" class="line"/><g transform="translate(0,74)"><text x="56" y="72" class="ink h2">Live command center</text><text x="56" y="112" class="muted small">Saturday · 6 courts · Barcelona Club</text><rect x="1020" y="48" width="154" height="46" rx="23.0" class="pill"/><text x="1097.0" y="77.0" class="text tiny" text-anchor="middle">Public link</text><rect x="1190" y="48" width="170" height="46" rx="23" fill="url(#coralGrad)"/><text x="1275" y="78" fill="#fff" class="text tiny" text-anchor="middle">New booking</text><rect x="56" y="148" width="300" height="118" rx="26" class="surface2"/><text x="80" y="190" class="muted tiny">Active courts</text><text x="80" y="242" class="ink h2">4/6</text><rect x="382" y="148" width="300" height="118" rx="26" class="surface2"/><text x="406" y="190" class="muted tiny">Next ending</text><text x="406" y="242" class="ink h2">11m</text><rect x="708" y="148" width="300" height="118" rx="26" class="surface2"/><text x="732" y="190" class="muted tiny">Queue</text><text x="732" y="242" class="ink h2">8 players</text><rect x="1034" y="148" width="300" height="118" rx="26" class="surface2"/><text x="1058" y="190" class="muted tiny">Today revenue</text><text x="1058" y="242" class="ink h2">€1.84k</text><rect x="56" y="300" width="795" height="108" rx="24" class="surface"/><circle cx="86" cy="336" r="7" fill="#16A34A"/><text x="108" y="343" class="ink small">Court 01</text><text x="108" y="378" class="muted tiny">Mika / Tara vs Noah / Lea</text><text x="724" y="343" class="text tiny" text-anchor="end">36 min left</text><rect x="108" y="391" width="660" height="8" rx="4" fill="#F3E8DF"/><rect x="108" y="391" width="475.2" height="8" rx="4" fill="#16A34A"/><rect x="56" y="432" width="795" height="108" rx="24" class="surface"/><circle cx="86" cy="468" r="7" fill="#F04F2A"/><text x="108" y="475" class="ink small">Court 02</text><text x="108" y="510" class="muted tiny">Open match · 2 seats</text><text x="724" y="475" class="text tiny" text-anchor="end">Starts 18:00</text><rect x="108" y="523" width="660" height="8" rx="4" fill="#F3E8DF"/><rect x="108" y="523" width="230.99999999999997" height="8" rx="4" fill="#F04F2A"/><rect x="56" y="564" width="795" height="108" rx="24" class="surface"/><circle cx="86" cy="600" r="7" fill="#FFB703"/><text x="108" y="607" class="ink small">Court 03</text><text x="108" y="642" class="muted tiny">Cleaning</text><text x="724" y="607" class="text tiny" text-anchor="end">Ready in 7 min</text><rect x="108" y="655" width="660" height="8" rx="4" fill="#F3E8DF"/><rect x="108" y="655" width="132.0" height="8" rx="4" fill="#FFB703"/><rect x="56" y="696" width="795" height="108" rx="24" class="surface"/><circle cx="86" cy="732" r="7" fill="#16A34A"/><text x="108" y="739" class="ink small">Court 04</text><text x="108" y="774" class="muted tiny">Available</text><text x="724" y="739" class="text tiny" text-anchor="end">Bookable now</text><rect x="108" y="787" width="660" height="8" rx="4" fill="#F3E8DF"/><rect x="108" y="787" width="39.6" height="8" rx="4" fill="#16A34A"/><rect x="890" y="300" width="470" height="500" rx="28" class="surface"/><text x="922" y="354" class="ink body">Club activity</text><circle cx="936" cy="410" r="18" fill="#FFF1E9"/><text x="936" y="417" text-anchor="middle" font-family="Inter, sans-serif" font-weight="800" font-size="18" fill="#F04F2A">1</text><text x="970" y="410" class="text tiny">Lena opened a match</text><text x="970" y="440" class="muted tiny">Court 02 · 18:00</text><rect x="1220" y="402" width="104" height="34" rx="17.0" class="pill"/><text x="1272.0" y="425.0" class="muted tiny" text-anchor="middle">2 spots left</text><circle cx="936" cy="502" r="18" fill="#FFF1E9"/><text x="936" y="509" text-anchor="middle" font-family="Inter, sans-serif" font-weight="800" font-size="18" fill="#F04F2A">2</text><text x="970" y="502" class="text tiny">Efe joined waitlist</text><text x="970" y="532" class="muted tiny">Level 3.5 · doubles</text><rect x="1220" y="494" width="104" height="34" rx="17.0" class="pill"/><text x="1272.0" y="517.0" class="muted tiny" text-anchor="middle">Called next</text><circle cx="936" cy="594" r="18" fill="#FFF1E9"/><text x="936" y="601" text-anchor="middle" font-family="Inter, sans-serif" font-weight="800" font-size="18" fill="#F04F2A">3</text><text x="970" y="594" class="text tiny">Court 05 payment received</text><text x="970" y="624" class="muted tiny">Apple Pay · €48</text><rect x="1220" y="586" width="104" height="34" rx="17.0" class="pill"/><text x="1272.0" y="609.0" class="muted tiny" text-anchor="middle">Settled</text><circle cx="936" cy="686" r="18" fill="#FFF1E9"/><text x="936" y="693" text-anchor="middle" font-family="Inter, sans-serif" font-weight="800" font-size="18" fill="#F04F2A">4</text><text x="970" y="686" class="text tiny">Weekly ladder updated</text><text x="970" y="716" class="muted tiny">Aylin moved to #2</text><rect x="1220" y="678" width="104" height="34" rx="17.0" class="pill"/><text x="1272.0" y="701.0" class="muted tiny" text-anchor="middle">Challenge</text></g></g></g>
    </svg>