<svg xmlns="http://www.w3.org/2000/svg" viewBox="0 0 1344 950" width="1344" height="950" role="img" aria-label="PadelOS mockup mock-queue.svg">
    
    <defs>
      <filter id="shadow" x="-20%" y="-20%" width="140%" height="150%">
        <feDropShadow dx="0" dy="18" stdDeviation="22" flood-color="#8A2D16" flood-opacity="0.12"/>
      </filter>
      <linearGradient id="creamGrad" x1="0" y1="0" x2="1" y2="1">
        <stop offset="0" stop-color="#FFF8F1"/>
        <stop offset="1" stop-color="#FFFFFF"/>
      </linearGradient>
      <linearGradient id="coralGrad" x1="0" y1="0" x2="1" y2="1">
        <stop offset="0" stop-color="#FF724D"/>
        <stop offset="1" stop-color="#F04F2A"/>
      </linearGradient>
    </defs>
    
    <style>
  .bg { fill: #FFF8F1; }
  .screen { fill: #ffffff; stroke: #EADDD2; stroke-width: 1.5; }
  .surface { fill: #ffffff; stroke: #EADDD2; stroke-width: 1.2; }
  .surface2 { fill: #FFFDFB; stroke: #EADDD2; stroke-width: 1; }
  .ink { fill: #211A1D; font-family: Inter, ui-sans-serif, system-ui, -apple-system, BlinkMacSystemFont, Segoe UI, sans-serif; font-weight: 750; }
  .text { fill: #211A1D; font-family: Inter, ui-sans-serif, system-ui, -apple-system, BlinkMacSystemFont, Segoe UI, sans-serif; font-weight: 600; }
  .muted { fill: #82746D; font-family: Inter, ui-sans-serif, system-ui, -apple-system, BlinkMacSystemFont, Segoe UI, sans-serif; font-weight: 500; }
  .tiny { font-size: 17px; }
  .small { font-size: 22px; }
  .body { font-size: 28px; }
  .h2 { font-size: 42px; letter-spacing: -1.5px; }
  .h1 { font-size: 58px; letter-spacing: -2.4px; }
  .pill { fill: #FFF1E9; stroke: #FFD8C9; stroke-width: 1; }
  .accent { fill: #F04F2A; }
  .accentDark { fill: #BF321C; }
  .amber { fill: #FFB703; }
  .green { fill: #16A34A; }
  .blue { fill: #4F77FF; }
  .line { stroke: #EADDD2; stroke-width: 1.5; }
  .soft { fill: #FFF3EA; }
  .shadow { filter: url(#shadow); }
</style>
    <rect width="1344" height="950" fill="url(#creamGrad)"/>
    <g transform="translate(46,50)"><g class="shadow"><rect x="0" y="0" width="1252" height="850" rx="30" class="screen"/><rect x="0" y="0" width="1252" height="74" rx="28" fill="#FFFDFB"/><circle cx="34" cy="35" r="8" fill="#F87171"/><circle cx="61" cy="35" r="8" fill="#FBBF24"/><circle cx="88" cy="35" r="8" fill="#22C55E"/><text x="126" y="43" class="muted tiny">Queue</text><line x1="0" y1="74" x2="1252" y2="74" class="line"/><g transform="translate(0,74)"><text x="48" y="70" class="ink h2">Queue control</text><text x="48" y="112" class="muted small">Waitlist, auto-calls and no-show protection.</text><rect x="48" y="160" width="420" height="610" rx="28" class="surface"/><text x="80" y="212" class="ink body">Waiting now</text><circle cx="102" cy="284" r="26" fill="#FFF1E9"/><text x="102" y="293" text-anchor="middle" font-size="26" font-family="Inter,sans-serif" font-weight="900" fill="#F04F2A">1</text><text x="142" y="279" class="text small">Mert + Deniz</text><text x="142" y="311" class="muted tiny">18:40 · level 3.0</text><rect x="354" y="264" width="74" height="40" rx="20" fill="#F04F2A" stroke="none"/><text x="391" y="290" text-anchor="middle" font-size="15" font-family="Inter,sans-serif" font-weight="800" fill="#fff">Call</text><circle cx="102" cy="390" r="26" fill="#FFF1E9"/><text x="102" y="399" text-anchor="middle" font-size="26" font-family="Inter,sans-serif" font-weight="900" fill="#F04F2A">2</text><text x="142" y="385" class="text small">Lena Solo</text><text x="142" y="417" class="muted tiny">Any court · 45 min</text><rect x="354" y="370" width="74" height="40" rx="20" fill="#FFF8F1" stroke="#F04F2A"/><text x="391" y="396" text-anchor="middle" font-size="15" font-family="Inter,sans-serif" font-weight="800" fill="#F04F2A">Hold</text><circle cx="102" cy="496" r="26" fill="#FFF1E9"/><text x="102" y="505" text-anchor="middle" font-size="26" font-family="Inter,sans-serif" font-weight="900" fill="#F04F2A">3</text><text x="142" y="491" class="text small">Efe + Can</text><text x="142" y="523" class="muted tiny">After 19:00</text><rect x="354" y="476" width="74" height="40" rx="20" fill="#F04F2A" stroke="none"/><text x="391" y="502" text-anchor="middle" font-size="15" font-family="Inter,sans-serif" font-weight="800" fill="#fff">Call</text><circle cx="102" cy="602" r="26" fill="#FFF1E9"/><text x="102" y="611" text-anchor="middle" font-size="26" font-family="Inter,sans-serif" font-weight="900" fill="#F04F2A">4</text><text x="142" y="597" class="text small">Nora Team</text><text x="142" y="629" class="muted tiny">Court 02 preferred</text><rect x="354" y="582" width="74" height="40" rx="20" fill="#FFF8F1" stroke="#F04F2A"/><text x="391" y="608" text-anchor="middle" font-size="15" font-family="Inter,sans-serif" font-weight="800" fill="#F04F2A">Notify</text><rect x="508" y="160" width="696" height="284" rx="28" class="surface"/><text x="540" y="213" class="ink body">Smart allocation</text><text x="540" y="260" class="muted tiny">Expected free court</text><text x="800" y="260" class="text tiny">Court 04</text><rect x="940" y="241" width="200" height="14" rx="7" fill="#F3E8DF"/><rect x="940" y="241" width="120.0" height="14" rx="7" fill="#F04F2A"/><text x="540" y="318" class="muted tiny">No-show risk</text><text x="800" y="318" class="text tiny">Low</text><rect x="940" y="299" width="200" height="14" rx="7" fill="#F3E8DF"/><rect x="940" y="299" width="50.0" height="14" rx="7" fill="#16A34A"/><text x="540" y="376" class="muted tiny">Avg wait time</text><text x="800" y="376" class="text tiny">17 min</text><rect x="940" y="357" width="200" height="14" rx="7" fill="#F3E8DF"/><rect x="940" y="357" width="90.0" height="14" rx="7" fill="#FFB703"/><rect x="508" y="480" width="696" height="290" rx="28" class="surface"/><text x="540" y="535" class="ink body">Timeline</text><circle cx="552" cy="575" r="7" fill="#16A34A"/><text x="578" y="580" class="muted tiny">18:21</text><text x="658" y="580" class="text tiny">Court 03 ends in 9 min</text><circle cx="552" cy="623" r="7" fill="#F04F2A"/><text x="578" y="628" class="muted tiny">18:23</text><text x="658" y="628" class="text tiny">Call #1 if confirmed</text><circle cx="552" cy="671" r="7" fill="#FFB703"/><text x="578" y="676" class="muted tiny">18:30</text><text x="658" y="676" class="text tiny">Cleaning buffer starts</text><circle cx="552" cy="719" r="7" fill="#16A34A"/><text x="578" y="724" class="muted tiny">18:40</text><text x="658" y="724" class="text tiny">Next match ready</text></g></g></g>
    </svg>