<svg xmlns="http://www.w3.org/2000/svg" viewBox="0 0 1314 940" width="1314" height="940" role="img" aria-label="PadelOS mockup mock-court-detail.svg">
    
    <defs>
      <filter id="shadow" x="-20%" y="-20%" width="140%" height="150%">
        <feDropShadow dx="0" dy="18" stdDeviation="22" flood-color="#8A2D16" flood-opacity="0.12"/>
      </filter>
      <linearGradient id="creamGrad" x1="0" y1="0" x2="1" y2="1">
        <stop offset="0" stop-color="#FFF8F1"/>
        <stop offset="1" stop-color="#FFFFFF"/>
      </linearGradient>
      <linearGradient id="coralGrad" x1="0" y1="0" x2="1" y2="1">
        <stop offset="0" stop-color="#FF724D"/>
        <stop offset="1" stop-color="#F04F2A"/>
      </linearGradient>
    </defs>
    
    <style>
  .bg { fill: #FFF8F1; }
  .screen { fill: #ffffff; stroke: #EADDD2; stroke-width: 1.5; }
  .surface { fill: #ffffff; stroke: #EADDD2; stroke-width: 1.2; }
  .surface2 { fill: #FFFDFB; stroke: #EADDD2; stroke-width: 1; }
  .ink { fill: #211A1D; font-family: Inter, ui-sans-serif, system-ui, -apple-system, BlinkMacSystemFont, Segoe UI, sans-serif; font-weight: 750; }
  .text { fill: #211A1D; font-family: Inter, ui-sans-serif, system-ui, -apple-system, BlinkMacSystemFont, Segoe UI, sans-serif; font-weight: 600; }
  .muted { fill: #82746D; font-family: Inter, ui-sans-serif, system-ui, -apple-system, BlinkMacSystemFont, Segoe UI, sans-serif; font-weight: 500; }
  .tiny { font-size: 17px; }
  .small { font-size: 22px; }
  .body { font-size: 28px; }
  .h2 { font-size: 42px; letter-spacing: -1.5px; }
  .h1 { font-size: 58px; letter-spacing: -2.4px; }
  .pill { fill: #FFF1E9; stroke: #FFD8C9; stroke-width: 1; }
  .accent { fill: #F04F2A; }
  .accentDark { fill: #BF321C; }
  .amber { fill: #FFB703; }
  .green { fill: #16A34A; }
  .blue { fill: #4F77FF; }
  .line { stroke: #EADDD2; stroke-width: 1.5; }
  .soft { fill: #FFF3EA; }
  .shadow { filter: url(#shadow); }
</style>
    <rect width="1314" height="940" fill="url(#creamGrad)"/>
    <g transform="translate(50,48)"><g class="shadow"><rect x="0" y="0" width="1214" height="840" rx="30" class="screen"/><rect x="0" y="0" width="1214" height="74" rx="28" fill="#FFFDFB"/><circle cx="34" cy="35" r="8" fill="#F87171"/><circle cx="61" cy="35" r="8" fill="#FBBF24"/><circle cx="88" cy="35" r="8" fill="#22C55E"/><text x="126" y="43" class="muted tiny">Court detail</text><line x1="0" y1="74" x2="1214" y2="74" class="line"/><g transform="translate(0,74)"><text x="54" y="72" class="ink h1">Court 03</text><rect x="318" y="32" width="140" height="46" rx="23.0" class="pill"/><text x="388.0" y="61.0" class="text tiny" text-anchor="middle">Live now</text><text x="54" y="118" class="muted small">Indoor panoramic · €48 / 60 min · next cleaning at 18:35</text><rect x="54" y="168" width="620" height="430" rx="30" class="surface"/><rect x="96" y="218" width="536" height="302" rx="22" fill="#FDF2E9" stroke="#EACBBB" stroke-width="3"/><line x1="364" y1="218" x2="364" y2="520" stroke="#FFFFFF" stroke-width="5"/><line x1="96" y1="369" x2="632" y2="369" stroke="#FFFFFF" stroke-width="5"/><rect x="150" y="250" width="428" height="238" rx="10" fill="none" stroke="#FFFFFF" stroke-width="4"/><circle cx="204" cy="304" r="28" fill="#F04F2A"/><text x="204" y="313" text-anchor="middle" font-family="Inter,sans-serif" font-size="24" font-weight="900" fill="#fff">M</text><circle cx="515" cy="304" r="28" fill="#F04F2A"/><text x="515" y="313" text-anchor="middle" font-family="Inter,sans-serif" font-size="24" font-weight="900" fill="#fff">T</text><circle cx="214" cy="452" r="28" fill="#F04F2A"/><text x="214" y="461" text-anchor="middle" font-family="Inter,sans-serif" font-size="24" font-weight="900" fill="#fff">N</text><circle cx="515" cy="452" r="28" fill="#F04F2A"/><text x="515" y="461" text-anchor="middle" font-family="Inter,sans-serif" font-size="24" font-weight="900" fill="#fff">L</text><text x="96" y="565" class="text small">Mika / Tara vs Noah / Lea</text><rect x="720" y="168" width="440" height="188" rx="28" class="surface"/><text x="752" y="222" class="ink body">Current session</text><text x="752" y="272" class="ink h2">36:18 left</text><rect x="752" y="302" width="340" height="12" rx="6" fill="#F3E8DF"/><rect x="752" y="302" width="244" height="12" rx="6" fill="#F04F2A"/><rect x="720" y="390" width="440" height="208" rx="28" class="surface"/><text x="752" y="444" class="ink body">Court settings</text><text x="752" y="482" class="muted tiny">Price</text><text x="1038" y="482" class="text tiny" text-anchor="end">€48 / hour</text><text x="752" y="516" class="muted tiny">Buffer</text><text x="1038" y="516" class="text tiny" text-anchor="end">10 min</text><text x="752" y="550" class="muted tiny">Visibility</text><text x="1038" y="550" class="text tiny" text-anchor="end">Public</text><text x="752" y="584" class="muted tiny">Status</text><text x="1038" y="584" class="text tiny" text-anchor="end">Playable</text><rect x="54" y="636" width="1106" height="124" rx="30" class="surface"/><text x="88" y="690" class="ink body">Next reservations</text><rect x="420" y="662" width="190" height="48" rx="24.0" class="pill"/><text x="515.0" y="692.0" class="muted tiny" text-anchor="middle">18:45  Open Match</text><rect x="644" y="662" width="190" height="48" rx="24.0" class="pill"/><text x="739.0" y="692.0" class="muted tiny" text-anchor="middle">20:00  Private bo</text><rect x="868" y="662" width="190" height="48" rx="24.0" class="pill"/><text x="963.0" y="692.0" class="muted tiny" text-anchor="middle">21:15  Coach sess</text></g></g></g>
    </svg>